<?xml version="1.0" encoding="utf-8"?>
<!-- Generator: Adobe Illustrator 21.0.2, SVG Export Plug-In . SVG Version: 6.00 Build 0)  -->
<svg version="1.1" id="Layer_1" xmlns="http://www.w3.org/2000/svg" xmlns:xlink="http://www.w3.org/1999/xlink" x="0px" y="0px"
	 viewBox="0 0 347.2 100.9" style="enable-background:new 0 0 347.2 100.9;" xml:space="preserve">
<style type="text/css">
	.st0{fill:#FFFFFF;}
	.st1{fill:#F38021;}
	.st2{fill:#AFCD38;}
	.st3{fill:#5BC8E4;}
	.st4{fill:#073B5A;}
</style>
<title>thebackpack_logo</title>
<path class="st0" d="M43.7,0L0,25.2v50.5l43.7,25.2l43.7-25.2V25.2L43.7,0z M8.8,44.8l32.1-18.5v8.1L8.8,52.8V44.8z M71.6,63.4V26.3
	l7,4v37.1L71.6,63.4z M59,19l7,4v37.1l-7-4V19z M46.5,11.8l7,4v37.1l-4.2-2.4l-2.8-1.6V11.8z M8.8,30.3l32.1-18.5v8L8.8,38.3V30.3z
	 M40.9,40.7v8.1l-2.8,1.6l-7,4l-5.6,3.2l-7,4l-5.6,3.2l-4.1,2.4v-8.1L40.9,40.7z M11.6,72.2l7-4l32.1,18.5l-7,4L11.6,72.2z
	 M24.1,64.9l7-4l32.1,18.5l-7,4L24.1,64.9z M36.7,57.7l4.2-2.5l2.8-1.6l2.8,1.6l7,4l5.6,3.2l7,4l5.6,3.2l4.2,2.4l-7,4L36.7,57.7z"/>
<polygon class="st1" points="44.5,8.1 44.5,49.8 80.2,71.8 80.2,27.1 "/>
<polygon class="st2" points="79.2,72.1 43.1,92.9 6.2,73 44.9,50.7 "/>
<polygon class="st3" points="42.7,8.1 42.7,49.8 7,71.8 7,27.1 "/>
<path class="st4" d="M84.1,27.1l-5.6-3.2l-7-4L66,16.6l-7-4l-5.6-3.2l-7-4l-2.8-1.6l-2.8,1.6L3.2,27.1v46.8L6,75.5l37.7,21.8
	l5.6-3.2l7-4l5.6-3.2l7-4l5.6-3.2l7-4l2.8-1.6V27.1L84.1,27.1z M71.6,26.3l7,4v37.1l-7-4V26.3z M59,19l7,4v37.1l-7-4V19z M46.5,11.8
	l7,4v37.1l-4.2-2.4l-2.8-1.6V11.8z M8.8,30.3l32.1-18.5v8L8.8,38.3V30.3z M8.8,44.8l32.1-18.5v8.1L8.8,52.8V44.8z M8.8,59.3
	l32.1-18.5v8.1l-2.8,1.6l-7,4l-5.6,3.2l-7,4l-5.6,3.2l-4.1,2.4L8.8,59.3z M43.7,90.7L11.6,72.2l7-4l32.1,18.5L43.7,90.7z M56.2,83.5
	L24.1,64.9l7-4l32.1,18.5L56.2,83.5z M68.8,76.2L36.6,57.7l4.2-2.5l2.8-1.6l2.8,1.6l7,4l5.6,3.2l7,4l5.6,3.2l4.2,2.4L68.8,76.2z"/>
<g>
	<path class="st0" d="M137.1,70.7c0,9-6.9,12.3-16.8,12.3h-11.9V39.6h10.1c10.5,0,16.7,3.4,16.7,10.9c0,5.4-3.8,8.6-8.1,9.5
		C132.2,60.8,137.1,63.3,137.1,70.7z M113.8,58.1h7.1c5,0,8.7-2.5,8.7-7.2c0-5.4-3.9-6.9-10.5-6.9h-5.2V58.1z M131.3,70.7
		c0-6.2-4.5-8.3-9.9-8.3h-7.6v16.2h6.5C126.8,78.6,131.3,77,131.3,70.7L131.3,70.7z"/>
	<path class="st0" d="M167.8,80l-1.3,3.7c-3.2-0.4-5.3-1.8-6.2-5.1c-2.2,3.4-6,5.3-10,5.1c-6.5,0-10.5-4.1-10.5-10
		c0-7.1,5.3-10.9,14.4-10.9h5.4v-2.6c0-4.9-2.3-6.8-7.1-6.8c-3.1,0.1-6.1,0.7-9,1.8l-1.3-3.9c3.6-1.4,7.4-2.2,11.2-2.2
		c7.9,0,11.5,4,11.5,10.9v15.4C165,78.4,166,79.4,167.8,80z M159.7,74.3v-7.9H155c-6.2,0-9.5,2.3-9.5,7.1c0,4,2.1,6.2,6,6.2
		C155.2,79.7,157.8,77.9,159.7,74.3L159.7,74.3z"/>
	<path class="st0" d="M196,52.6l-2.6,3.5c-2-1.7-4.5-2.6-7.1-2.6c-5.4,0-8.9,4.2-8.9,13.1s3.5,12.6,8.9,12.6c2.7,0,5.2-1,7.2-2.7
		l2.5,3.6c-2.8,2.4-6.3,3.7-10,3.6c-8.8,0-14.4-6.4-14.4-17.1s5.5-17.5,14.4-17.5C189.6,49,193.2,50.2,196,52.6z"/>
	<path class="st0" d="M200.9,83V36.5l5.3-0.6V83H200.9z M226.6,83h-6.3l-13.6-18.1l12.6-15.1h5.9l-12.6,14.7L226.6,83z"/>
	<path class="st0" d="M256.7,66.3c0,10.1-4.4,17.4-12.9,17.4c-3.4,0.2-6.7-1.3-8.8-3.9v15.8l-5.3,0.6V49.8h4.6l0.4,4.6
		c2.2-3.3,5.9-5.3,9.8-5.4C253.1,49.1,256.7,55.8,256.7,66.3z M251,66.3c0-8.8-2.6-13-7.8-13c-3.6,0-6.4,2.5-8.2,5.3v16.5
		c1.6,2.6,4.5,4.2,7.6,4.2C248,79.4,251,75.2,251,66.3L251,66.3z"/>
	<path class="st0" d="M288.4,80l-1.2,3.7c-3.2-0.4-5.3-1.8-6.2-5.1c-2.2,3.4-6,5.3-10,5.1c-6.5,0-10.5-4.1-10.5-10
		c0-7.1,5.3-10.9,14.4-10.9h5.4v-2.6c0-4.9-2.3-6.8-7.1-6.8c-3.1,0.1-6.1,0.7-9,1.8l-1.3-3.9c3.6-1.4,7.4-2.2,11.2-2.2
		c7.9,0,11.5,4,11.5,10.9v15.4C285.7,78.4,286.7,79.4,288.4,80z M280.4,74.3v-7.9h-4.7c-6.2,0-9.5,2.3-9.5,7.1c0,4,2.1,6.2,6,6.2
		C275.8,79.7,278.5,77.9,280.4,74.3L280.4,74.3z"/>
	<path class="st0" d="M316.6,52.6l-2.7,3.5c-2-1.7-4.5-2.6-7.1-2.6c-5.4,0-8.9,4.2-8.9,13.1s3.5,12.6,8.9,12.6c2.7,0,5.2-1,7.2-2.7
		l2.5,3.6c-2.8,2.4-6.3,3.7-10,3.6c-8.8,0-14.4-6.4-14.4-17.1s5.5-17.5,14.4-17.5C310.3,49,313.8,50.2,316.6,52.6z"/>
	<path class="st0" d="M321.6,83V36.5l5.3-0.6V83H321.6z M347.2,83h-6.4l-13.6-18.1l12.6-15.1h5.9l-12.6,14.7L347.2,83z"/>
</g>
<g>
	<path class="st0" d="M226.5,27.3c-0.3,0.1-0.5,0.1-0.7,0.1c-0.8,0-1.1-0.3-1.1-1.3V19c0-3.8-3-5.6-6.6-5.6c-2.7,0-4.2,0.3-7.1,1.5
		l-0.6,3.8l3.8,0.4l0.5-1.9c0.8-0.4,1.5-0.5,2.5-0.5c2.7,0,2.7,2,2.7,3.7V21c-0.8-0.1-1.8-0.1-2.7-0.1c-3.8,0-7.7,1-7.7,5
		c0,3.4,2.7,4.7,5.1,4.7c2.7,0,4.4-1.6,5.3-3.3c0.2,2,1.4,3.3,3.6,3.3c1,0,2.1-0.3,3-0.8L226.5,27.3z M216.3,27.2
		c-1.4,0-1.9-0.8-1.9-1.9c0-1.8,1.5-2.3,3.1-2.3c0.8,0,1.6,0.1,2.4,0.2C219.8,25.9,218,27.2,216.3,27.2z M210,5l-7.1,25.2h-4.7
		L205.4,5C205.4,5,210,5,210,5z M200.4,5l-7.1,25.2h-4.7L195.8,5H200.4z M180.6,13.7h4.9v5.9h-4.9V13.7z M180.6,24.3h4.9v5.9h-4.9
		V24.3z M173.4,24l3.7,0.4l-1,5.8h-14.4l-0.5-2.5l9.1-10.4h-5.2l-0.7,2.6l-3.4-0.4l0.6-5.8h14.5l0.4,2.5l-9.2,10.4h5.3L173.4,24z
		 M149.8,13.4c-5.9,0-8.9,4-8.9,8.8c0,5.3,3.5,8.4,8.6,8.4c5.3,0,9.1-3.3,9.1-8.6C158.6,17.3,155.7,13.4,149.8,13.4z M149.7,26.9
		c-2.6,0-3.9-2.2-3.9-5.1c0-3.1,1.5-4.9,3.9-4.9c2.2,0,4,1.5,4,4.8C153.8,25,152.1,26.9,149.7,26.9z M136.7,26.6h2.2v3.6H132v-9.3
		c0-2.9-1-4-2.8-4c-2.3,0-3.2,1.6-3.2,3.9v5.7h2.2v3.6h-6.9v-9.3c0-2.9-1-4-2.8-4c-2.3,0-3.2,1.6-3.2,3.9v5.7h3.1v3.6h-10v-3.6h2.2
		v-9.3h-2.2v-3.6h6.9v2.5c1-1.8,2.7-2.8,5-2.8c2.4,0,4.6,1.1,5.4,3.6c0.9-2.2,2.8-3.6,5.4-3.6c3,0,5.7,1.8,5.7,5.7L136.7,26.6
		L136.7,26.6z"/>
</g>
</svg>
