<?xml version="1.0" encoding="utf-8"?>
<!-- Generator: Adobe Illustrator 21.0.2, SVG Export Plug-In . SVG Version: 6.00 Build 0)  -->
<svg version="1.1" id="Layer_1" xmlns="http://www.w3.org/2000/svg" xmlns:xlink="http://www.w3.org/1999/xlink" x="0px" y="0px"
	 viewBox="0 0 347.2 100.9" style="enable-background:new 0 0 347.2 100.9;" xml:space="preserve">
<style type="text/css">
	.st0{fill:#FFFFFF;}
	.st1{fill:#F38021;}
	.st2{fill:#AFCD38;}
	.st3{fill:#5BC8E4;}
	.st4{fill:#073B5A;}
</style>
<title>thebackpack_logo</title>
<path class="st0" d="M43.7,0L0,25.2v50.5l43.7,25.2l43.7-25.2V25.2L43.7,0z M8.8,44.8l32.1-18.5v8.1L8.8,52.8V44.8z M71.6,63.4V26.3
	l7,4v37.1L71.6,63.4z M59,19l7,4v37.1l-7-4V19z M46.5,11.8l7,4v37.1l-4.2-2.4l-2.8-1.6V11.8z M8.8,30.3l32.1-18.5v8L8.8,38.3V30.3z
	 M40.9,40.7v8.1l-2.8,1.6l-7,4l-5.6,3.2l-7,4l-5.6,3.2l-4.1,2.4v-8.1L40.9,40.7z M11.6,72.2l7-4l32.1,18.5l-7,4L11.6,72.2z
	 M24.1,64.9l7-4l32.1,18.5l-7,4L24.1,64.9z M36.7,57.7l4.2-2.5l2.8-1.6l2.8,1.6l7,4l5.6,3.2l7,4l5.6,3.2l4.2,2.4l-7,4L36.7,57.7z"/>
<polygon class="st1" points="44.5,8.1 44.5,49.8 80.2,71.8 80.2,27.1 "/>
<polygon class="st2" points="79.2,72.1 43.1,92.9 6.2,73 44.9,50.7 "/>
<polygon class="st3" points="42.7,8.1 42.7,49.8 7,71.8 7,27.1 "/>
<path class="st4" d="M84.1,27.1l-5.6-3.2l-7-4L66,16.6l-7-4l-5.6-3.2l-7-4l-2.8-1.6l-2.8,1.6L3.2,27.1v46.8L6,75.5l37.7,21.8
	l5.6-3.2l7-4l5.6-3.2l7-4l5.6-3.2l7-4l2.8-1.6v-47H84.1z M71.6,26.3l7,4v37.1l-7-4V26.3z M59,19l7,4v37.1l-7-4V19z M46.5,11.8l7,4
	v37.1l-4.2-2.4l-2.8-1.6V11.8z M8.8,30.3l32.1-18.5v8L8.8,38.3V30.3z M8.8,44.8l32.1-18.5v8.1L8.8,52.8V44.8z M8.8,59.3l32.1-18.5
	v8.1l-2.8,1.6l-7,4l-5.6,3.2l-7,4l-5.6,3.2l-4.1,2.4L8.8,59.3z M43.7,90.7L11.6,72.2l7-4l32.1,18.5L43.7,90.7z M56.2,83.5L24.1,64.9
	l7-4l32.1,18.5L56.2,83.5z M68.8,76.2L36.6,57.7l4.2-2.5l2.8-1.6l2.8,1.6l7,4l5.6,3.2l7,4l5.6,3.2l4.2,2.4L68.8,76.2z"/>
<g>
	<path class="st0" d="M137.3,71.8c0,9-6.9,12.3-16.8,12.3h-11.9V40.8h10.1c10.5,0,16.7,3.4,16.7,10.9c0,5.4-3.8,8.6-8.1,9.5
		C132.4,61.9,137.3,64.4,137.3,71.8z M114.1,59.2h7.1c5,0,8.7-2.5,8.7-7.2c0-5.4-3.9-6.9-10.5-6.9h-5.2L114.1,59.2L114.1,59.2z
		 M131.5,71.8c0-6.2-4.5-8.3-9.9-8.3h-7.6v16.2h6.5C127,79.7,131.5,78.1,131.5,71.8L131.5,71.8z"/>
	<path class="st0" d="M168,81.1l-1.3,3.7c-3.2-0.4-5.3-1.8-6.2-5.1c-2.2,3.4-6,5.3-10,5.1c-6.5,0-10.5-4.1-10.5-10
		c0-7.1,5.3-10.9,14.4-10.9h5.4v-2.6c0-4.9-2.3-6.8-7.1-6.8c-3.1,0.1-6.1,0.7-9,1.8l-1.3-3.9c3.6-1.4,7.4-2.2,11.2-2.2
		c7.9,0,11.5,4,11.5,10.9v15.4C165.2,79.5,166.2,80.5,168,81.1z M159.9,75.4v-7.9h-4.7c-6.2,0-9.5,2.3-9.5,7.1c0,4,2.1,6.2,6,6.2
		C155.4,80.8,158,79,159.9,75.4L159.9,75.4z"/>
	<path class="st0" d="M196.2,53.7l-2.6,3.5c-2-1.7-4.5-2.6-7.1-2.6c-5.4,0-8.9,4.2-8.9,13.1s3.5,12.6,8.9,12.6c2.7,0,5.2-1,7.2-2.7
		l2.5,3.6c-2.8,2.4-6.3,3.7-10,3.6c-8.8,0-14.4-6.4-14.4-17.1s5.5-17.5,14.4-17.5C189.8,50.2,193.4,51.4,196.2,53.7z"/>
	<path class="st0" d="M201.1,84.1V37.7l5.3-0.6v47H201.1z M226.7,84.1h-6.3L206.9,66L219.4,51h5.9l-12.6,14.7L226.7,84.1z"/>
	<path class="st0" d="M256.8,67.4c0,10.1-4.4,17.4-12.9,17.4c-3.4,0.2-6.7-1.3-8.8-3.9v15.8l-5.3,0.6V51h4.6l0.4,4.6
		c2.2-3.3,5.9-5.3,9.8-5.4C253.2,50.3,256.8,56.9,256.8,67.4z M251.1,67.4c0-8.8-2.6-13-7.8-13c-3.6,0-6.4,2.5-8.2,5.3v16.5
		c1.6,2.6,4.5,4.2,7.6,4.2C248.1,80.5,251.1,76.3,251.1,67.4L251.1,67.4z"/>
	<path class="st0" d="M288.5,81.1l-1.2,3.7c-3.2-0.4-5.3-1.8-6.2-5.1c-2.2,3.4-6,5.3-10,5.1c-6.5,0-10.5-4.1-10.5-10
		c0-7.1,5.3-10.9,14.4-10.9h5.4v-2.6c0-4.9-2.3-6.8-7.1-6.8c-3.1,0.1-6.1,0.7-9,1.8l-1.3-3.9c3.6-1.4,7.4-2.2,11.2-2.2
		c7.9,0,11.5,4,11.5,10.9v15.4C285.8,79.5,286.8,80.5,288.5,81.1z M280.5,75.4v-7.9h-4.7c-6.2,0-9.5,2.3-9.5,7.1c0,4,2.1,6.2,6,6.2
		C275.9,80.8,278.6,79,280.5,75.4L280.5,75.4z"/>
	<path class="st0" d="M316.6,53.7l-2.7,3.5c-2-1.7-4.5-2.6-7.1-2.6c-5.4,0-8.9,4.2-8.9,13.1s3.5,12.6,8.9,12.6c2.7,0,5.2-1,7.2-2.7
		l2.5,3.6c-2.8,2.4-6.3,3.7-10,3.6c-8.8,0-14.4-6.4-14.4-17.1s5.5-17.5,14.4-17.5C310.3,50.2,313.8,51.4,316.6,53.7z"/>
	<path class="st0" d="M321.6,84.1V37.7l5.3-0.6v47H321.6z M347.2,84.1h-6.4L327.2,66L339.8,51h5.9l-12.6,14.7L347.2,84.1z"/>
</g>
<g>
	<rect x="108.7" y="3.8" width="97.9" height="28"/>
	<path class="st0" d="M202.1,23.9c-0.2,0.1-0.4,0.1-0.5,0.1c-0.6,0-0.8-0.2-0.8-1v-5.3c0-2.8-2.2-4.2-4.9-4.2c-2,0-3.1,0.2-5.2,1.1
		l-0.4,2.8l2.8,0.3l0.4-1.4c0.6-0.3,1.1-0.4,1.9-0.4c2,0,2,1.5,2,2.7v0.4c-0.6-0.1-1.3-0.1-2-0.1c-2.8,0-5.7,0.7-5.7,3.7
		c0,2.6,2,3.5,3.8,3.5c2,0,3.2-1.2,3.9-2.4c0.2,1.5,1.1,2.4,2.7,2.4c0.8,0,1.5-0.2,2.2-0.6L202.1,23.9z M194.6,23.8
		c-1.1,0-1.4-0.6-1.4-1.4c0-1.3,1.1-1.7,2.3-1.7c0.6,0,1.2,0.1,1.8,0.2C197.2,22.9,195.9,23.8,194.6,23.8z M189.9,7.4L184.6,26h-3.5
		l5.3-18.7C186.5,7.4,189.9,7.4,189.9,7.4z M182.8,7.4L177.5,26H174l5.3-18.7H182.8z M168.1,13.8h3.7v4.4h-3.7V13.8z M168.1,21.7
		h3.7v4.4h-3.7V21.7z M162.8,21.5l2.8,0.3l-0.8,4.3h-10.7l-0.4-1.8l6.7-7.7h-3.8l-0.5,1.9l-2.5-0.3l0.4-4.3h10.7l0.3,1.8l-6.8,7.7h4
		L162.8,21.5z M145.2,13.6c-4.4,0-6.6,3-6.6,6.6c0,3.9,2.6,6.2,6.4,6.2c3.9,0,6.7-2.5,6.7-6.4C151.8,16.5,149.6,13.6,145.2,13.6z
		 M145.1,23.6c-1.9,0-2.9-1.6-2.9-3.8c0-2.3,1.1-3.6,2.9-3.6c1.7,0,3,1.1,3,3.6C148.2,22.2,147,23.6,145.1,23.6z M135.5,23.4h1.6V26
		H132v-6.9c0-2.1-0.7-2.9-2.1-2.9c-1.7,0-2.4,1.2-2.4,2.9v4.3h1.6v2.7h-5.1v-6.9c0-2.1-0.7-2.9-2.1-2.9c-1.7,0-2.4,1.2-2.4,2.9v4.3
		h2.3v2.7h-7.4v-2.7h1.6v-6.9h-1.6v-2.7h5.1v1.8c0.7-1.3,2-2.1,3.7-2.1c1.8,0,3.4,0.8,4,2.6c0.7-1.6,2.1-2.6,4-2.6
		c2.2,0,4.2,1.3,4.2,4.2L135.5,23.4L135.5,23.4z"/>
</g>
</svg>
