<svg id="Layer_1" data-name="Layer 1" xmlns="http://www.w3.org/2000/svg" viewBox="0 0 347.21 100.89"><defs><style>.cls-1{fill:#fff;}.cls-2{fill:#f38021;}.cls-3{fill:#afcd38;}.cls-4{fill:#5bc8e4;}.cls-5{fill:#073b5a;}</style></defs><title>thebackpack_logo</title><path class="cls-1" d="M291.47,246.89l-43.69,25.22v50.45l43.69,25.22,43.69-25.22V272.11Zm-34.89,44.78,32.11-18.54v8.06l-32.11,18.54Zm62.8,18.58V273.15l7,4v37.09ZM306.81,265.9l7,4V307l-7-4Zm-12.56-7.25,7,4v37.09L297,297.33l-2.75-1.59Zm-37.68,18.54,32.11-18.54v8l-32.11,18.54Zm32.11,10.44v8.07l-2.83,1.63-7,4-5.58,3.22-7,4-5.58,3.22-4.15,2.4v-8.07Zm-29.34,31.44,7-4,32.13,18.55-7,4Zm12.54-7.24,7-4L311,326.35l-7,4Zm12.56-7.25,4.24-2.45,2.75-1.59,2.83,1.63,7,4,5.57,3.22,7,4,5.57,3.22,4.18,2.41-7,4Z" transform="translate(-247.78 -246.89)"/><polygon class="cls-2" points="44.54 8.05 44.54 49.8 80.22 71.81 80.22 27.09 44.54 8.05"/><polygon class="cls-3" points="79.23 72.06 43.07 92.94 6.17 73.04 44.9 50.68 79.23 72.06"/><polygon class="cls-4" points="42.7 8.05 42.7 49.8 7.01 71.81 7.01 27.09 42.7 8.05"/><path class="cls-5" d="M331.93,273.94l-5.57-3.22-7-4-5.57-3.22-7-4-5.57-3.22-7-4-2.79-1.61-2.79,1.61L251,274v46.75l2.77,1.6,37.72,21.78,5.58-3.22,7-4,5.58-3.22,7-4,5.58-3.22,7-4,2.81-1.62V274Zm-12.56-.79,7,4v37.09l-7-4Zm-12.56-7.25,7,4V307l-7-4Zm-12.56-7.25,7,4v37.09L297,297.33l-2.75-1.59Zm-37.68,18.54,32.11-18.54v8l-32.11,18.54Zm0,14.48,32.11-18.54v8.06l-32.11,18.54Zm0,14.5,32.11-18.54v8.07l-2.83,1.63-7,4-5.58,3.22-7,4-5.58,3.22-4.15,2.4Zm34.89,31.45-32.13-18.55,7-4,32.13,18.55ZM304,330.38l-32.13-18.55,7-4L311,326.35Zm12.56-7.25-32.13-18.55,4.24-2.45,2.75-1.59,2.83,1.63,7,4,5.57,3.22,7,4,5.57,3.22,4.18,2.41Z" transform="translate(-247.78 -246.89)"/><path class="cls-1" d="M384.89,306.56c0,9-6.87,12.29-16.82,12.29H356.16V275.5h10.08c10.52,0,16.7,3.4,16.7,10.9,0,5.42-3.78,8.63-8.06,9.51C380,296.73,384.89,299.19,384.89,306.56ZM361.58,294h7.06c5,0,8.69-2.52,8.69-7.25,0-5.42-3.91-6.93-10.52-6.93h-5.23Zm17.52,12.54c0-6.17-4.54-8.32-9.89-8.32h-7.62v16.19h6.49C374.55,314.44,379.09,312.93,379.09,306.56Z" transform="translate(-247.78 -246.89)"/><path class="cls-1" d="M415.57,315.89l-1.26,3.72c-3.21-.44-5.29-1.76-6.17-5.1a11.31,11.31,0,0,1-10,5.1c-6.55,0-10.46-4.1-10.46-10,0-7.06,5.29-10.9,14.37-10.9h5.42V296.1c0-4.91-2.33-6.8-7.12-6.8a27.87,27.87,0,0,0-8.95,1.83l-1.32-3.91A31,31,0,0,1,401.33,285c7.88,0,11.47,4,11.47,10.9v15.37C412.79,314.31,413.8,315.26,415.57,315.89Zm-8.06-5.73v-7.88h-4.73c-6.17,0-9.45,2.33-9.45,7.06,0,4,2.08,6.24,6,6.24C403,315.57,405.61,313.75,407.5,310.15Z" transform="translate(-247.78 -246.89)"/><path class="cls-1" d="M443.73,288.48l-2.65,3.47a10.45,10.45,0,0,0-7.12-2.58c-5.42,0-8.88,4.22-8.88,13.1s3.46,12.6,8.88,12.6a11,11,0,0,0,7.25-2.71l2.52,3.59a15,15,0,0,1-10,3.65c-8.82,0-14.36-6.36-14.36-17.07S424.89,285,433.77,285A14.53,14.53,0,0,1,443.73,288.48Z" transform="translate(-247.78 -246.89)"/><path class="cls-1" d="M448.7,318.85v-46.5l5.29-.63v47.13Zm25.64,0H468l-13.61-18.08L467,285.71h5.92l-12.6,14.68Z" transform="translate(-247.78 -246.89)"/><path class="cls-1" d="M504.46,302.22c0,10.14-4.41,17.39-12.92,17.39a10.81,10.81,0,0,1-8.82-3.91v15.81l-5.29.63V285.71H482l.44,4.6a11.94,11.94,0,0,1,9.83-5.36C500.93,285,504.46,291.69,504.46,302.22Zm-5.67,0c0-8.82-2.65-13-7.81-13-3.65,0-6.43,2.52-8.25,5.29V311a9,9,0,0,0,7.62,4.22C495.83,315.26,498.79,311.1,498.79,302.22Z" transform="translate(-247.78 -246.89)"/><path class="cls-1" d="M536.21,315.89,535,319.61c-3.21-.44-5.29-1.76-6.17-5.1a11.31,11.31,0,0,1-10,5.1c-6.55,0-10.46-4.1-10.46-10,0-7.06,5.29-10.9,14.37-10.9h5.42V296.1c0-4.91-2.33-6.8-7.12-6.8a27.87,27.87,0,0,0-8.95,1.83l-1.32-3.91A31,31,0,0,1,522,285c7.88,0,11.47,4,11.47,10.9v15.37C533.44,314.31,534.45,315.26,536.21,315.89Zm-8.06-5.73v-7.88h-4.73c-6.17,0-9.45,2.33-9.45,7.06,0,4,2.08,6.24,6,6.24C523.61,315.57,526.26,313.75,528.15,310.15Z" transform="translate(-247.78 -246.89)"/><path class="cls-1" d="M564.37,288.48l-2.65,3.47a10.45,10.45,0,0,0-7.12-2.58c-5.42,0-8.88,4.22-8.88,13.1s3.46,12.6,8.88,12.6a11,11,0,0,0,7.25-2.71l2.52,3.59a15,15,0,0,1-10,3.65c-8.82,0-14.36-6.36-14.36-17.07S545.53,285,554.42,285A14.53,14.53,0,0,1,564.37,288.48Z" transform="translate(-247.78 -246.89)"/><path class="cls-1" d="M569.35,318.85v-46.5l5.29-.63v47.13Zm25.64,0h-6.36L575,300.77l12.6-15.06h5.92l-12.6,14.68Z" transform="translate(-247.78 -246.89)"/></svg>