<?xml version="1.0" encoding="utf-8"?>
<!-- Generator: Adobe Illustrator 20.1.0, SVG Export Plug-In . SVG Version: 6.00 Build 0)  -->
<svg version="1.1" id="Layer_1" xmlns="http://www.w3.org/2000/svg" xmlns:xlink="http://www.w3.org/1999/xlink" x="0px" y="0px"
	 viewBox="0 0 76.2 60" style="enable-background:new 0 0 76.2 60;" xml:space="preserve">
<style type="text/css">
	.st0{fill:#FFFFFF;}
</style>
<path class="st0" d="M4.6,12.4v24.5c0,3.8,10.6,12.2,20.8,18.1c9-4.9,20.8-13.5,20.8-18.1V12.4L25.4,4.8L4.6,12.4z M25.4,60L25.4,60
	c-0.4,0-0.8-0.1-1.1-0.3C20.2,57.4,0,45.5,0,36.9V10.8c0-1,0.6-1.8,1.5-2.2l23.1-8.5c0.5-0.2,1.1-0.2,1.6,0l23.1,8.5
	c0.9,0.3,1.5,1.2,1.5,2.2v26.1c0,9.4-20.2,20.6-24.3,22.8C26.2,59.9,25.8,60,25.4,60z"/>
<path class="st0" d="M30,12.4v24.5c0,3.8,10.6,12.2,20.8,18.1c9-4.9,20.8-13.5,20.8-18.1V12.4L50.8,4.8L30,12.4z M50.8,60L50.8,60
	c-0.4,0-0.8-0.1-1.1-0.3c-4.1-2.3-24.3-14.2-24.3-22.8V10.8c0-1,0.6-1.8,1.5-2.2L50,0.1c0.5-0.2,1.1-0.2,1.6,0l23.1,8.5
	c0.9,0.3,1.5,1.2,1.5,2.2v26.1c0,9.4-20.2,20.6-24.3,22.8C51.5,59.9,51.2,60,50.8,60z"/>
</svg>
