<?xml version="1.0" encoding="utf-8"?>
<!-- Generator: Adobe Illustrator 20.1.0, SVG Export Plug-In . SVG Version: 6.00 Build 0)  -->
<svg version="1.1" id="Layer_1" xmlns="http://www.w3.org/2000/svg" xmlns:xlink="http://www.w3.org/1999/xlink" x="0px" y="0px"
	 viewBox="0 0 60 60" style="enable-background:new 0 0 60 60;" xml:space="preserve">
<style type="text/css">
	.st0{fill:#999999;}
</style>
<path class="st0" d="M59.3,0.5L59.3,0.5c-0.8-0.6-1.9-0.5-2.5,0.2L30,27.4L3.3,0.6c0,0-0.1-0.1-0.1-0.1c-0.8-0.7-2-0.6-2.7,0.1
	s-0.6,2,0.1,2.7L27.3,30L0.6,56.8c-0.8,0.7-0.8,1.9,0,2.7s2,0.7,2.7,0L30,32.7l26.7,26.7c0.7,0.8,1.9,0.8,2.7,0c0.7-0.7,0.7-2,0-2.7
	L32.7,30L59.4,3.3C60.2,2.5,60.2,1.2,59.3,0.5z"/>
</svg>
