<?xml version="1.0" encoding="utf-8"?>
<!-- Generator: Adobe Illustrator 20.1.0, SVG Export Plug-In . SVG Version: 6.00 Build 0)  -->
<svg version="1.1" id="Layer_1" xmlns="http://www.w3.org/2000/svg" xmlns:xlink="http://www.w3.org/1999/xlink" x="0px" y="0px"
	 viewBox="0 0 60 60" style="enable-background:new 0 0 60 60;" xml:space="preserve">
<path d="M31.4,35.8L36,21.4c-1.1-0.4-2.6-0.9-4.2-1c-1.1-0.1-2.3,0.1-3.4,0.5c-2.3,0.7-4.1,2.4-5.3,5.4c-1.5,3.3-1.5,6.5-0.1,8.9
	c1,1.7,2.6,2.7,4.1,2.7C28.8,37.8,30.6,36.6,31.4,35.8z M41.1,17.1l2.1,1.2l-5.9,18.9c1.1,2,3.2,5.7,6,5.8
	c4.4-0.9,8.1-11.1,8.6-18.3c0.7-9.1-6.5-17.8-18-18.6C17.6,4.9,8.8,16.7,8.1,26.5C6.8,45.3,21.9,53.3,35.3,53.9L34.8,60
	C9.7,58.5,1,42.1,2,26.1c1.1-15.8,14.6-27.2,32.3-26c14.9,1,24.5,12.7,23.7,25.1c-0.7,9.8-6.1,22.8-14.6,23.9
	c-4.5,0.5-8.3-3.9-10.2-7c-1.6,1-3.7,1.7-6.1,1.8c-0.2-0.1-0.3-0.1-0.5-0.1c-3.5-0.2-6.7-2.3-8.7-5.5c-2.6-4.1-2.7-9.4-0.5-14.5
	c1.1-2.4,2.4-4.4,4.2-5.8c1.4-1.4,3.1-2.4,5.1-3c3-1,6.4-1,10,0.1C39.3,16,41,17.1,41.1,17.1z"/>
</svg>
