<?xml version="1.0" encoding="utf-8"?>
<!-- Generator: Adobe Illustrator 20.1.0, SVG Export Plug-In . SVG Version: 6.00 Build 0)  -->
<svg version="1.1" id="Layer_1" xmlns="http://www.w3.org/2000/svg" xmlns:xlink="http://www.w3.org/1999/xlink" x="0px" y="0px"
	 viewBox="0 0 60 60" style="enable-background:new 0 0 60 60;" xml:space="preserve">
<style type="text/css">
	.st0{fill:#DD4B39;}
</style>
<path class="st0" d="M58.1,40.3c-1.5,5.1-4,9.2-7.6,12.4c-3.6,3.2-7.7,5.3-12.3,6.4c-5.3,1.2-10.4,1.2-15.3-0.2
	c-4.1-1.1-7.7-2.9-10.9-5.5c-3.4-2.7-6.2-6-8.2-9.9c-3-6.2-3.9-12.7-2.6-19.4c0.6-2.9,1.5-5.4,2.6-7.5C7.6,9.2,13.3,4.3,20.9,1.7
	C27.8-0.6,34.5-0.6,41,1.9c3.7,1.3,6.9,3.3,9.6,6l-2.9,2.9c-0.5,0.5-1.1,1.1-1.7,1.8c-0.6,0.6-1.3,1.3-2,2c-0.8,0.7-1.4,1.3-1.8,1.7
	c-1.7-1.7-3.9-3-6.4-3.9c-2.9-0.9-5.8-1-8.8-0.4c-3.6,0.9-6.5,2.5-8.9,5c-2,2-3.4,4.3-4.4,7c-1.2,4-1.2,7.9,0.1,11.7h-0.1
	c0,0.1,0,0.2,0.1,0.4c0.1,0.2,0.2,0.3,0.2,0.4c1.4,3.5,3.6,6.3,6.5,8.3c2.1,1.5,4.3,2.5,6.7,2.9c2.3,0.5,4.7,0.5,7.1,0
	c2.3-0.3,4.4-1.2,6.5-2.6c3.4-2.2,5.4-5.3,6.1-9.2H30.6V24.4h28.2c0.2,0.7,0.3,1.9,0.5,3.6C59.6,32,59.2,36.1,58.1,40.3z"/>
</svg>
