<?xml version="1.0" encoding="utf-8"?>
<!-- Generator: Adobe Illustrator 20.1.0, SVG Export Plug-In . SVG Version: 6.00 Build 0)  -->
<svg version="1.1" id="Layer_1" xmlns="http://www.w3.org/2000/svg" xmlns:xlink="http://www.w3.org/1999/xlink" x="0px" y="0px"
	 viewBox="0 0 60 60" style="enable-background:new 0 0 60 60;" xml:space="preserve">
<g>
	<path d="M32.6,39.9v9.4h-5.1v-9.4c-0.5-0.6-0.8-1.4-0.8-2.2c0-1.9,1.5-3.4,3.4-3.4s3.4,1.5,3.4,3.4C33.4,38.5,33.1,39.3,32.6,39.9z
		 M19.7,14.2c0-5.7,4.6-10.3,10.3-10.3c2.8,0,5.4,1.1,7.3,3c2,2,3,4.6,3,7.3v7H19.7V14.2z M49.3,23.5c0-1.2-1-2.2-2.2-2.2h-2.9v-7
		c0-3.8-1.5-7.4-4.2-10.1C37.4,1.5,33.8,0,30,0c-7.9,0-14.2,6.4-14.2,14.2v7h-2.9c-1.2,0-2.2,1-2.2,2.2v34.4c0,1.2,1,2.2,2.2,2.2
		h34.4c1.2,0,2.2-1,2.2-2.2L49.3,23.5z"/>
</g>
</svg>
