<?xml version="1.0" encoding="utf-8"?>
<!-- Generator: Adobe Illustrator 20.1.0, SVG Export Plug-In . SVG Version: 6.00 Build 0)  -->
<svg version="1.1" id="Layer_1" xmlns="http://www.w3.org/2000/svg" xmlns:xlink="http://www.w3.org/1999/xlink" x="0px" y="0px"
	 viewBox="0 0 60 60" style="enable-background:new 0 0 60 60;" xml:space="preserve">
<style type="text/css">
	.st0{fill:#999999;}
</style>
<path class="st0" d="M60,29.9L60,29.9c-0.1-0.7-0.7-1.2-1.4-1.2H31.4V1.4c0,0,0-0.1,0-0.1c0-0.8-0.7-1.3-1.4-1.3s-1.3,0.7-1.3,1.4
	v27.2H1.4C0.6,28.7,0,29.3,0,30c0,0.8,0.6,1.4,1.4,1.4h27.2v27.2c0,0.8,0.6,1.4,1.4,1.4c0.8,0,1.4-0.6,1.4-1.4V31.4h27.2
	C59.4,31.4,60.1,30.7,60,29.9z"/>
</svg>
