<?xml version="1.0" encoding="utf-8"?>
<!-- Generator: Adobe Illustrator 20.1.0, SVG Export Plug-In . SVG Version: 6.00 Build 0)  -->
<svg version="1.1" id="Layer_1" xmlns="http://www.w3.org/2000/svg" xmlns:xlink="http://www.w3.org/1999/xlink" x="0px" y="0px"
	 viewBox="0 0 76.2 60" style="enable-background:new 0 0 76.2 60;" xml:space="preserve">
<style type="text/css">
	.st0{fill-rule:evenodd;clip-rule:evenodd;fill:#FFFFFF;}
</style>
<g>
	<path class="st0" d="M38.1,22.5c-4.2,0-7.5,3.4-7.5,7.5c0,4.2,3.4,7.5,7.5,7.5c4.1,0,7.5-3.4,7.5-7.5
		C45.6,25.9,42.2,22.5,38.1,22.5z M60.4,27.5c0.1,0.8,0.2,1.7,0.2,2.5c0,0.9-0.2,1.7-0.2,2.5l7.1,5.2c0.6,0.4,0.8,1.4,0.4,2.3
		l-1.7,4c-0.4,0.8-1.2,1.4-1.9,1.3L55.6,44c-1.1,1.3-2.3,2.5-3.6,3.6l1.4,8.7c0.1,0.7-0.5,1.6-1.3,1.9l-4,1.7
		c-0.8,0.3-1.8,0.2-2.3-0.4l-5.2-7.2c-0.8,0.1-1.6,0.3-2.5,0.3c-0.9,0-1.7-0.2-2.5-0.3l-5.2,7.1c-0.4,0.6-1.4,0.8-2.3,0.4l-4-1.7
		c-0.8-0.3-1.4-1.2-1.3-1.9l1.3-8.7c-1.3-1.1-2.5-2.3-3.6-3.6l-8.7,1.3c-0.7,0.1-1.6-0.5-1.9-1.3l-1.7-4c-0.3-0.8-0.2-1.8,0.4-2.3
		l7.2-5.3c-0.1-0.8-0.3-1.6-0.3-2.5s0.2-1.7,0.3-2.5l-7.1-5.2c-0.6-0.4-0.8-1.5-0.4-2.3l1.7-4c0.3-0.8,1.2-1.4,1.9-1.3l8.7,1.3
		c1.1-1.3,2.2-2.5,3.5-3.6l-1.3-8.7c-0.1-0.7,0.5-1.6,1.3-1.9l4-1.7c0.8-0.3,1.8-0.2,2.3,0.4l5.3,7.2c0.8-0.1,1.6-0.3,2.5-0.3
		s1.7,0.2,2.5,0.3l5.2-7.2c0.4-0.6,1.4-0.8,2.3-0.4l4,1.7c0.8,0.3,1.4,1.2,1.3,1.9l-1.4,8.7c1.3,1.1,2.5,2.3,3.6,3.6l8.7-1.3
		c0.7-0.1,1.6,0.5,1.9,1.3l1.7,4c0.3,0.8,0.2,1.8-0.4,2.3L60.4,27.5z"/>
</g>
</svg>
