<?xml version="1.0" encoding="utf-8"?>
<!-- Generator: Adobe Illustrator 20.1.0, SVG Export Plug-In . SVG Version: 6.00 Build 0)  -->
<svg version="1.1" id="Layer_1" xmlns="http://www.w3.org/2000/svg" xmlns:xlink="http://www.w3.org/1999/xlink" x="0px" y="0px"
	 viewBox="0 0 76.2 60" style="enable-background:new 0 0 76.2 60;" xml:space="preserve">
<style type="text/css">
	.st0{fill:#FFFFFF;}
</style>
<g>
	<g>
		<path class="st0" d="M56,36.9c0,4.6-11.5,13.2-20.5,18.1C25.3,49.1,15,40.7,15,36.9V12.4l20.5-7.6l4.7,1.8C41.7,5.9,44,5.2,45,4.7
			V3.4l-8.9-3.3c-0.5-0.2-1-0.2-1.5,0L11.5,8.6C10.6,8.9,10,9.8,10,10.8v26.1c0,8.6,20.2,20.5,24.3,22.8c0.3,0.2,0.7,0.3,1.1,0.3
			c0.4,0,0.9-0.1,1.2-0.3C40.6,57.6,61,46.3,61,36.9v-5.7l-5,5V36.9z"/>
	</g>
	<path class="st0" d="M51.3,30.8l0-8.4c-11.9-0.1-20.8,6.9-20.8,6.9s1.4-15.5,20.8-19.3V2.4l15,14.2L59,23.5L51.3,30.8z"/>
</g>
</svg>
