<?xml version="1.0" encoding="utf-8"?>
<!-- Generator: Adobe Illustrator 20.1.0, SVG Export Plug-In . SVG Version: 6.00 Build 0)  -->
<svg version="1.1" id="Layer_1" xmlns="http://www.w3.org/2000/svg" xmlns:xlink="http://www.w3.org/1999/xlink" x="0px" y="0px"
	 viewBox="0 0 60 60" style="enable-background:new 0 0 60 60;" xml:space="preserve">
<style type="text/css">
	.st0{fill:#999999;}
</style>
<path class="st0" d="M45,0c-5.5,0-10,4.5-10,10c0,1,0.1,2,0.4,3l-13.9,9.5C19.8,20.9,17.5,20,15,20C9.5,20,5,24.5,5,30s4.5,10,10,10
	c2.5,0,4.8-0.9,6.6-2.5L35.5,47c-0.3,1-0.5,2-0.5,3c0,5.5,4.5,10,10,10s10-4.5,10-10s-4.5-10-10-10c-3.4,0-6.5,1.8-8.3,4.4
	l-13.3-9.1c1-1.6,1.6-3.4,1.6-5.4c0-2-0.6-3.8-1.6-5.4l13.3-9.1c1.8,2.7,4.8,4.4,8.3,4.4c5.5,0,10-4.5,10-10S50.5,0,45,0z"/>
</svg>
