<?xml version="1.0" encoding="utf-8"?>
<!-- Generator: Adobe Illustrator 20.1.0, SVG Export Plug-In . SVG Version: 6.00 Build 0)  -->
<svg version="1.1" id="Layer_1" xmlns="http://www.w3.org/2000/svg" xmlns:xlink="http://www.w3.org/1999/xlink" x="0px" y="0px"
	 viewBox="0 0 60 60" style="enable-background:new 0 0 60 60;" xml:space="preserve">
<style type="text/css">
	.st0{fill:#1DA1F2;}
</style>
<g>
	<path class="st0" d="M53.9,17.8v1.5c0,5.6-1.3,11.1-3.9,16.3c-2.6,5.2-6.7,9.7-12.1,13.3c-5.5,3.6-11.8,5.4-19,5.4
		c-7,0-13.2-1.8-18.9-5.5C0.6,48.9,1.6,49,2.9,49c5.9,0,11-1.8,15.4-5.3c-2.7,0-5-0.8-7.1-2.4c-2.1-1.6-3.6-3.7-4.5-6.2
		C7.2,35.3,8,35.4,9,35.4c1.2,0,2.3-0.1,3.3-0.4c-2.8-0.6-5.2-2.1-7-4.3c-1.9-2.3-2.8-4.8-2.8-7.7v-0.2c1.8,1,3.6,1.5,5.5,1.5
		c-3.7-2.3-5.5-5.7-5.5-10.2c0-2,0.6-4.1,1.8-6.2c6.5,8.1,14.9,12.4,25.3,12.9c-0.2-0.9-0.4-1.9-0.4-2.8c0-3.4,1.2-6.2,3.6-8.7
		c2.4-2.4,5.3-3.6,8.7-3.6c3.6,0,6.6,1.3,9,3.9c3-0.6,5.7-1.6,7.9-2.9c-0.9,2.9-2.7,5.2-5.4,6.8c2.7-0.4,5.1-1.1,7-2
		C58.4,13.9,56.3,16,53.9,17.8z"/>
</g>
</svg>
