<?xml version="1.0" encoding="UTF-8" standalone="no"?>
<!-- Created with Inkscape (http://www.inkscape.org/) -->

<svg
   xmlns:dc="http://purl.org/dc/elements/1.1/"
   xmlns:cc="http://creativecommons.org/ns#"
   xmlns:rdf="http://www.w3.org/1999/02/22-rdf-syntax-ns#"
   xmlns:svg="http://www.w3.org/2000/svg"
   xmlns="http://www.w3.org/2000/svg"
   xmlns:sodipodi="http://sodipodi.sourceforge.net/DTD/sodipodi-0.dtd"
   xmlns:inkscape="http://www.inkscape.org/namespaces/inkscape"
   width="32.646408mm"
   height="38.439922mm"
   viewBox="0 0 115.67625 136.20445"
   id="svg4552"
   version="1.1"
   inkscape:version="0.91 r13725"
   sodipodi:docname="upload.svg">
  <defs
     id="defs4554" />
  <sodipodi:namedview
     id="base"
     pagecolor="#ffffff"
     bordercolor="#666666"
     borderopacity="1.0"
     inkscape:pageopacity="0.0"
     inkscape:pageshadow="2"
     inkscape:zoom="2.8"
     inkscape:cx="7.8071463"
     inkscape:cy="37.40695"
     inkscape:document-units="px"
     inkscape:current-layer="layer1"
     showgrid="false"
     fit-margin-top="0"
     fit-margin-left="0"
     fit-margin-right="0"
     fit-margin-bottom="0"
     inkscape:window-width="2560"
     inkscape:window-height="966"
     inkscape:window-x="0"
     inkscape:window-y="27"
     inkscape:window-maximized="1" />
  <metadata
     id="metadata4557">
    <rdf:RDF>
      <cc:Work
         rdf:about="">
        <dc:format>image/svg+xml</dc:format>
        <dc:type
           rdf:resource="http://purl.org/dc/dcmitype/StillImage" />
        <dc:title></dc:title>
      </cc:Work>
    </rdf:RDF>
  </metadata>
  <g
     inkscape:label="Layer 1"
     inkscape:groupmode="layer"
     id="layer1"
     transform="translate(-136.44759,-287.11713)">
    <g
       transform="matrix(1.25,0,0,-1.25,81.275864,1163.8806)"
       id="g4530">
      <path
         inkscape:connector-curvature="0"
         id="path94"
         style="fill:none;stroke:#999999;stroke-width:1.94099998;stroke-linecap:butt;stroke-linejoin:miter;stroke-miterlimit:10;stroke-dasharray:none;stroke-opacity:1"
         d="m 90.38488,593.41787 0,0 c -0.708,0 -1.398,0.184 -2.018,0.535 -7.246,4.074 -43.259,25.273 -43.259,40.63 l 0,46.631 c 0,1.734 1.086,3.278 2.714,3.869 l 41.165,15.106 c 0.913,0.335 1.922,0.335 2.842,0 l 41.163,-15.106 c 1.629,-0.591 2.716,-2.135 2.716,-3.869 l 0,-46.631 c 0,-16.711 -36.098,-36.8 -43.344,-40.668 -0.608,-0.33 -1.288,-0.503 -1.979,-0.497 z" />
      <path
         inkscape:connector-curvature="0"
         id="path300"
         style="fill:#999999;fill-opacity:1;fill-rule:nonzero;stroke:none"
         d="m 90.328688,669.20437 0,0 c -0.443,-0.049 -0.773,-0.427 -0.764,-0.871 l 0,-17.163 -17.163,0 c -0.027,0 -0.054,0 -0.081,0 -0.474,-0.023 -0.84,-0.425 -0.817,-0.898 0.022,-0.474 0.424,-0.841 0.898,-0.818 l 17.163,0 0,-17.163 c -0.007,-0.479 0.38,-0.87 0.858,-0.87 0.478,0 0.865,0.391 0.858,0.87 l 0,17.163 17.163002,0 c 0.478,-0.01 0.869,0.379 0.869,0.858 0,0.478 -0.391,0.865 -0.869,0.858 l -17.163002,0 0,17.163 c 0.011,0.518 -0.436,0.927 -0.952,0.871" />
    </g>
  </g>
</svg>
